<?xml version="1.0" encoding="utf-8"?>
<!-- Generator: Adobe Illustrator 19.0.0, SVG Export Plug-In . SVG Version: 6.00 Build 0)  -->
<svg version="1.1" id="Layer_1" xmlns="http://www.w3.org/2000/svg" xmlns:xlink="http://www.w3.org/1999/xlink" x="0px" y="0px"
	 viewBox="0 0 612 206" style="enable-background:new 0 0 612 206;" xml:space="preserve">
<style type="text/css">
	.st0{clip-path:url(#XMLID_102_);}
	.st1{opacity:0.77;clip-path:url(#XMLID_103_);}
	.st2{clip-path:url(#XMLID_104_);fill:#F37448;}
	.st3{fill:#FFFFFF;}
</style>
<g id="XMLID_2_">
	<defs>
		<rect id="XMLID_3_" y="10" width="697.9" height="185.1"/>
	</defs>
	<clipPath id="XMLID_102_">
		<use xlink:href="#XMLID_3_"  style="overflow:visible;"/>
	</clipPath>
	<g id="XMLID_7_" class="st0">
		<defs>
			<rect id="XMLID_8_" y="10" width="697.9" height="185.1"/>
		</defs>
		<clipPath id="XMLID_103_">
			<use xlink:href="#XMLID_8_"  style="overflow:visible;"/>
		</clipPath>
		<g id="XMLID_9_" class="st1">
			<g id="XMLID_10_">
				<defs>
					<rect id="XMLID_11_" x="-9" y="15.2" width="328.5" height="123.3"/>
				</defs>
				<clipPath id="XMLID_104_">
					<use xlink:href="#XMLID_11_"  style="overflow:visible;"/>
				</clipPath>
				<rect id="XMLID_12_" x="20.2" y="22.2" class="st2" width="290.3" height="115.3"/>
			</g>
		</g>
	</g>
	<g id="XMLID_4_" class="st0">
		<path id="XMLID_95_" class="st3" d="M101.8,110.1H70.1l-4.7,10.1H45.2v-3l36.2-78.5h8.9l36.3,78.5v3h-20.1L101.8,110.1z
			 M85.8,71.2l-9,21.2H95L85.8,71.2z"/>
		<path id="XMLID_98_" class="st3" d="M173.6,38.6c16.2,0.1,33.1,8.5,37,28.5h-20.2c-3.3-6.9-8.6-9.7-16.8-9.7
			c-13,0-20,10.1-20,22.4c0,13.3,7.8,22.1,20,22.1c8.3,0,13.6-2.2,17.3-9.9h-17.1V74.3h38.1c0.5,8,0.5,15.8-2.3,23.6
			c-5.8,16.8-21,23.2-35.9,23.2c-20.5,0-41.2-13.7-41.3-41.2C132.4,52.4,153.1,38.6,173.6,38.6z"/>
		<path id="XMLID_100_" class="st3" d="M278.3,58.1c-12,0-17.9,0-29.8,0v11.4h27.4c0,6.1,0,12.2,0,18.3h-27.4c0,4.7,0,9.3,0,14.1
			c11.8,0,18.7,0,30.8,0c0,6,0,12.2,0,18.3c-18.9,0-32.7,0-51.3,0c0-26.9,0-53.8,0-80.5c18.6,0,31.4,0,50.3,0
			C278.3,45.7,278.3,51.9,278.3,58.1z"/>
	</g>
	<g id="XMLID_64_" class="st0">
		<path id="XMLID_65_" d="M258,105.2c-4,3.2-6,7.5-6,11.8c0,5.3,2.9,10.4,8.4,13.3l14.6-25.1c4.2-7.4,10.3-11,15.5-11
			c6.9,0,12.4,5.5,12.4,14c0,3.7-1.2,8-3.8,12.6c-7.4,12.9-18.7,18-28.7,18c-1.9,0-3.6-0.2-5.3-0.5l-8.3,14.4
			c-0.8,1.4-1.7,2.7-2.5,3.9c1.7,1.8,3.3,3.7,5.2,5.5c11.2,11.4,17.3,17.2,24.4,17.2c4.5,0,8.8-1.1,13-5.1l4.6,4.9
			c0,0-5.4,7.6-17.7,7.6c-13.2,0-24.4-14.4-34.5-24.7c-4.9,4-10.3,5.8-14.8,5.8c-8.9,0-13.2-5.8-13.2-11.7s4.3-11.8,12.8-11.8
			c5.8,0,10.3,2.7,14.6,6.6c0.4-0.6,0.8-1.4,1.3-2.1l7.5-13c-7.6-3.9-11.9-11.1-11.9-18.6c0-6.3,3-12.7,9.6-17.5L258,105.2z
			 M243.6,156.6c-3.6-3.1-7.2-5.1-10.6-5.1c-3.1,0-4.9,2.3-4.9,4.7c0,2.3,1.7,4.4,5.4,4.4C237.4,160.5,240.7,159.2,243.6,156.6z
			 M268.4,132.5h1.9c14.6,0,25.2-15.7,25.2-24.5c0-3.4-1.6-5.8-5.1-5.8c-2.6,0-5.7,2.1-8.5,6.8L268.4,132.5z"/>
		<path id="XMLID_69_" d="M301,146l-0.9,1.6c-4.3,7.6-0.9,11.2,4.9,11.2c6.6,0,15.2-6.2,22-14l0.6-0.7c1.3,0.5,2.9,2,3.5,3.2
			c-7.7,9-18.3,17.3-28.9,17.3c-11.1,0-16.1-9.2-10.3-19.2l9.8-16.8c4-6.8,10-10.8,17.5-10.8c7.6,0,12.5,6.5,7.5,15.1l-1.3,2.3
			C318.4,147.4,307,148.6,301,146z M303.7,141.4c3.5,1.3,9.5,1.4,14-6.2l1.4-2.3c5.6-9.7-4-11.3-9.4-2L303.7,141.4z"/>
		<path id="XMLID_72_" d="M371.7,144.1c1.3,0.5,2.9,2,3.5,3.2c-7.7,9-16.6,17.3-24.4,17.3c-4.8,0-7.6-2.5-8.1-6.1
			c-4.5,3.7-9.2,6.1-13,6.1c-7.6,0-10.3-6.4-6.4-13.3l13.1-22.7c4-6.8,11-10.8,16-10.8c6.1,0,10.2,5.5,9.8,9.5h5.3l-15.1,26.5
			c-2.2,3.7-1,5.1,1.1,5.1c4.1,0,10.7-6.2,17.5-14L371.7,144.1z M331.5,153.7c-2.2,3.7-1,5.1,1.1,5.1c3.9,0,9.4-4.2,15.1-13.1
			l7.3-12.8c4.6-8.5-5.4-10.7-10.4-2L331.5,153.7z"/>
		<path id="XMLID_75_" d="M392.5,134.1c1.1-1.9,0.6-3.8-0.5-5.3l-1.3-1.5c-7.5,10.2-11,14.8-15.5,20.1c-1.3-0.9-2.7-2.1-3.5-3.2
			c6.1-7.2,11.7-15.1,15.8-21l-0.8-1.1c-3.3-4.3-2.9-9.6,2.4-14.4l4.9,5.3c-1.9,1.8-1.9,3.7-0.5,5.4l5.2,6.3c3.1,3.7,4.6,7,1.3,12.7
			l-9.4,16.4c-2.2,3.7-1,5.1,1.1,5.1c4.1,0,10.7-6.2,17.5-14l0.6-0.7c1.3,0.5,2.9,2,3.5,3.2c-7.7,9-16.6,17.3-24.4,17.3
			c-7.6,0-10.3-6.4-6.4-13.3L392.5,134.1z"/>
		<path id="XMLID_77_" d="M454.1,144.1c1.3,0.5,2.9,2,3.5,3.2c-7.7,9-16.6,17.3-24.4,17.3c-7.6,0-10.3-6.4-6.4-13.3l12.1-21.1
			c4.1-6.9-2.3-9.3-16.6,8.6L408,163.7h-9.5l26-45h9.4l-3.5,6.1c4.7-4.9,8.9-7,13-7c5.2,0,9.1,5.1,5,12.2l-13.5,23.7
			c-2.2,3.7-1,5.1,1.1,5.1c4.1,0,10.7-6.2,17.5-14L454.1,144.1z"/>
		<path id="XMLID_79_" d="M477.2,144.1c1.3,0.5,2.9,2,3.5,3.2c-7.7,9-16.6,17.3-24.4,17.3c-7.6,0-10.3-6.4-6.4-13.3l18.8-32.6h9.4
			l-20.1,35c-2.2,3.7-1,5.1,1.1,5.1c4.1,0,10.7-6.2,17.5-14L477.2,144.1z M479.3,103c3.1,0,5.5,2.4,5.5,5.5c0,3.1-2.4,5.4-5.5,5.4
			c-3.1,0-5.4-2.3-5.4-5.4C473.9,105.4,476.2,103,479.3,103z"/>
		<path id="XMLID_82_" d="M521.4,144.1c1.3,0.5,2.9,2,3.5,3.2c-7.7,9-16.6,17.3-24.4,17.3c-7.6,0-10.3-6.4-6.4-13.3l12.1-21.1
			c4-6.9-2.3-9.3-16.6,8.6l-14.3,24.9h-9.5l26-45h9.4l-3.5,6.1c4.7-4.9,8.9-7,13-7c5.2,0,9.1,5.1,5,12.2l-13.5,23.7
			c-2.2,3.7-1,5.1,1.1,5.1c4.1,0,10.7-6.2,17.5-14L521.4,144.1z"/>
		<path id="XMLID_84_" d="M530,165.8l2.6-4.4c-3.1,2-6.3,3.2-8.9,3.2c-7.6,0-10.3-6.4-6.4-13.3l13.1-22.7c4-6.8,11-10.8,16-10.8
			c5.9,0,9.8,5.1,9.8,9h5.5l-21,35.8c7.4-3.1,14-8.9,21.8-17.8l0.6-0.7c1.3,0.5,2.9,2,3.5,3.2c-10.3,12-19.8,18.5-29.6,21.6
			l-7.1,12.3c-6.8,11.5-20.5,9.6-20.5,0.6C509.4,174.8,517.4,169.7,530,165.8z M522.1,179.7l4.2-7.6c-7.1,2.8-9.4,5.6-9.4,8
			C517,182.7,520.1,183.2,522.1,179.7z M525.4,153.7c-2.2,3.7-1,5.1,1.1,5.1c4,0,9.6-4.4,15.3-13.5l7.1-12.4
			c4.6-8.5-5.4-10.7-10.4-2L525.4,153.7z"/>
	</g>
	<g id="XMLID_5_" class="st0">
		<path id="XMLID_88_" d="M320.5,90.2c-8.4,10.6-23.5,5.6-15.6-7.9l2.7-4.6l3.1-5.3c3.6-6.2,7.3-8.2,12.1-8.2
			c5.9,0,9.4,6.2,5.6,12.7l-5.9,10.1c3.1-0.1,6.6-1.6,9.4-4.6l0.4-0.5c0.8,0.4,1.9,1.3,2.3,2.2c-3.2,3.8-9.1,6.1-12.8,6.1H320.5z
			 M318.7,82.4h0.3l4.6-7.8c3.8-6.5-2.2-9.4-6.6-2l-3,5.1l-4.7,8.2c-3.7,6.5,3.4,7.4,6.4,2.4l0.1-0.1c-0.4-0.6-0.6-1.3-0.6-2.1
			C315.1,84.1,316.7,82.4,318.7,82.4z"/>
		<path id="XMLID_91_" d="M354.7,82c0.8,0.4,1.9,1.3,2.3,2.2c-7.1,8.2-15.4,10-21.5,10.4c0.6,1.7,0.5,4.1-0.7,6.3l-4.7,8.2
			c-6.7,11.7-16.3,5-11.5-3.3l25.8-44.8c8.2-14.2,21.7-10.1,14.5,2.3l-10,17.3c-3.2,5.5-8.3,9-12.6,11.2c5-0.4,11.8-2.2,17.9-9.4
			L354.7,82z M331.3,94.6h-0.5l-7.1,12.1c-2.6,4.4,0,5.5,2.2,1.7l5.2-9.2C332.4,97,332.4,95.3,331.3,94.6z M333.3,90.3
			c4.9-2.2,9.1-7.4,11.8-12.1l9.7-16.9c3.1-5.6-1.3-5.9-4.6-0.1L333.3,90.3z"/>
	</g>
</g>
</svg>
